<?xml version="1.0" encoding="UTF-8"?>
<svg width="14px" height="14px" viewBox="0 0 14 14" version="1.1" xmlns="http://www.w3.org/2000/svg" xmlns:xlink="http://www.w3.org/1999/xlink">
    <!-- Generator: Sketch 52.5 (67469) - http://www.bohemiancoding.com/sketch -->
    <title>error</title>
    <desc>Created with Sketch.</desc>
    <defs>
        <path d="M9.98482436,8.92879228 L7.86350402,6.80747194 L6.80284385,7.86813211 L8.92416419,9.98945246 L6.80284385,12.1107728 L7.86350402,13.171433 L9.98482436,11.0501126 L12.1061447,13.171433 L13.1668049,12.1107728 L11.0454845,9.98945246 L13.1668049,7.86813211 L12.1061447,6.80747194 L9.98482436,8.92879228 Z M14.9467496,5.05188273 C15.619684,5.72481715 16.1321549,6.49645875 16.4841776,7.36683068 C16.8269354,8.20942524 16.9984185,9.08745711 16.9986321,10.0009527 C16.9988457,10.9144482 16.8277731,11.7924 16.4854093,12.6348343 C16.1307081,13.5081272 15.6178267,14.2803006 14.9467496,14.9513777 C14.2756725,15.6224548 13.5034991,16.1353362 12.6302063,16.4900374 C11.7908573,16.8293158 10.9144482,16.9988457 10.0009527,16.9986321 C9.08745712,16.9984185 8.20788255,16.8284781 7.36220258,16.4888057 C6.49183066,16.136783 5.72018906,15.6243121 5.04725464,14.9513777 C4.37432022,14.2784432 3.86184934,13.5068016 3.50982663,12.6364297 C3.17015423,11.7907497 3.00021378,10.9111752 3.0000002,9.99767965 C2.99978662,9.08418411 3.1693165,8.20777501 3.50859493,7.36842605 C3.86329608,6.49513323 4.37617753,5.72295984 5.04725464,5.05188273 C5.71833175,4.38080562 6.49050513,3.86792418 7.36379796,3.51322302 C8.20623233,3.17085918 9.08418411,2.99978662 9.99767965,3.0000002 C10.9111752,3.00021378 11.7892071,3.17169691 12.6318016,3.51445472 C13.5021736,3.86647743 14.2738152,4.37894831 14.9467496,5.05188273 Z M10,16 C13.3137085,16 16,13.3137085 16,10 C16,6.6862915 13.3137085,4 10,4 C6.6862915,4 4,6.6862915 4,10 C4,13.3137085 6.6862915,16 10,16 Z" id="path-1"></path>
    </defs>
    <g id="Page-1" stroke="none" stroke-width="1" fill="none" fill-rule="evenodd">
        <g id="Artboard-Copy-2" transform="translate(-328.000000, -25.000000)">
            <g id="Group-8" transform="translate(322.000000, 18.000000)">
                <g id="icons/message/error" transform="translate(3.000000, 4.000000)">
                    <mask id="mask-2" fill="white">
                        <use xlink:href="#path-1"></use>
                    </mask>
                    <use id="reset-circle" fill="#484856" fill-rule="evenodd" xlink:href="#path-1"></use>
                    <g id="color/bred" mask="url(#mask-2)" fill="#FF3B30" fill-rule="evenodd">
                        <rect id="Rectangle-Copy-31" x="0" y="0" width="22" height="22" rx="4"></rect>
                    </g>
                </g>
            </g>
        </g>
    </g>
</svg>