<?xml version="1.0" encoding="UTF-8" standalone="no"?>
<!DOCTYPE svg PUBLIC "-//W3C//DTD SVG 1.1//EN"
 "http://www.w3.org/Graphics/SVG/1.1/DTD/svg11.dtd">
<!-- Generated by graphviz version 2.40.1 (20161225.0304)
 -->
<!-- Title: VegaRenderer Pages: 1 -->
<svg width="1267pt" height="370pt"
 viewBox="0.00 0.00 1266.87 369.60" xmlns="http://www.w3.org/2000/svg" xmlns:xlink="http://www.w3.org/1999/xlink">
<g id="graph0" class="graph" transform="scale(1 1) rotate(0) translate(4 365.6)">
<title>VegaRenderer</title>
<polygon fill="#ffffff" stroke="transparent" points="-4,4 -4,-365.6 1262.8689,-365.6 1262.8689,4 -4,4"/>
<!-- VegaRenderer -->
<g id="node1" class="node">
<title>VegaRenderer</title>
<polygon fill="none" stroke="#000000" points="0,-146.5 0,-288.1 426.6956,-288.1 426.6956,-146.5 0,-146.5"/>
<text text-anchor="middle" x="213.3478" y="-271.5" font-family="Times,serif" font-size="14.00" fill="#000000">VegaRenderer</text>
<polyline fill="none" stroke="#000000" points="0,-263.3 426.6956,-263.3 "/>
<text text-anchor="start" x="8" y="-246.7" font-family="Times,serif" font-size="14.00" fill="#000000">+ width : NSUInteger</text>
<text text-anchor="start" x="8" y="-229.9" font-family="Times,serif" font-size="14.00" fill="#000000">+ height : NSUInteger</text>
<text text-anchor="start" x="8" y="-213.1" font-family="Times,serif" font-size="14.00" fill="#000000">+ CGImage : CGImageRef</text>
<text text-anchor="start" x="8" y="-196.3" font-family="Times,serif" font-size="14.00" fill="#000000">+ CGLayer : CGLayerRef</text>
<polyline fill="none" stroke="#000000" points="0,-188.1 426.6956,-188.1 "/>
<text text-anchor="start" x="8" y="-171.5" font-family="Times,serif" font-size="14.00" fill="#000000">+ initWithSpec: (NSString *)spec</text>
<text text-anchor="middle" x="213.3478" y="-154.7" font-family="Times,serif" font-size="14.00" fill="#000000">+ initWithSpec: (NSString *)spec context:(CGContextRef)parentContext</text>
</g>
<!-- VegaCGCanvas -->
<g id="node2" class="node">
<title>VegaCGCanvas</title>
<polygon fill="none" stroke="#000000" points="469.2531,-73.5 469.2531,-109.5 575.4425,-109.5 575.4425,-73.5 469.2531,-73.5"/>
<text text-anchor="middle" x="522.3478" y="-87.3" font-family="Times,serif" font-size="14.00" fill="#000000">VegaCGCanvas</text>
</g>
<!-- VegaRenderer&#45;&gt;VegaCGCanvas -->
<g id="edge1" class="edge">
<title>VegaRenderer&#45;&gt;VegaCGCanvas</title>
<path fill="none" stroke="#000000" d="M387.2654,-146.4947C416.028,-134.7849 443.8783,-123.4465 466.7435,-114.1376"/>
<polygon fill="#000000" stroke="#000000" points="466.7719,-114.1261 470.8207,-108.1589 477.8861,-109.6012 473.8373,-115.5684 466.7719,-114.1261"/>
</g>
<!-- VegaCGContext -->
<g id="node3" class="node">
<title>VegaCGContext</title>
<polygon fill="none" stroke="#000000" points="795.6921,-.5 795.6921,-36.5 905.0035,-36.5 905.0035,-.5 795.6921,-.5"/>
<text text-anchor="middle" x="850.3478" y="-14.3" font-family="Times,serif" font-size="14.00" fill="#000000">VegaCGContext</text>
</g>
<!-- VegaCGCanvas&#45;&gt;VegaCGContext -->
<g id="edge2" class="edge">
<title>VegaCGCanvas&#45;&gt;VegaCGContext</title>
<path fill="none" stroke="#000000" d="M575.7767,-79.6088C632.5327,-66.9771 722.3599,-46.9851 783.7035,-33.3324"/>
<polygon fill="#000000" stroke="#000000" points="783.8608,-33.2975 788.8485,-28.0895 795.5742,-30.6905 790.5865,-35.8984 783.8608,-33.2975"/>
</g>
<!-- VegaCGLinearGradient -->
<g id="node4" class="node">
<title>VegaCGLinearGradient</title>
<polygon fill="none" stroke="#000000" points="625.103,-73.5 625.103,-109.5 775.5926,-109.5 775.5926,-73.5 625.103,-73.5"/>
<text text-anchor="middle" x="700.3478" y="-87.3" font-family="Times,serif" font-size="14.00" fill="#000000">VegaCGLinearGradient</text>
</g>
<!-- VegaCGImage -->
<g id="node5" class="node">
<title>VegaCGImage</title>
<polygon fill="none" stroke="#000000" points="825.3681,-73.5 825.3681,-109.5 925.3275,-109.5 925.3275,-73.5 825.3681,-73.5"/>
<text text-anchor="middle" x="875.3478" y="-87.3" font-family="Times,serif" font-size="14.00" fill="#000000">VegaCGImage</text>
</g>
<!-- VegaCGTextMetrics -->
<g id="node6" class="node">
<title>VegaCGTextMetrics</title>
<polygon fill="none" stroke="#000000" points="948.6493,-73.5 948.6493,-109.5 1082.0463,-109.5 1082.0463,-73.5 948.6493,-73.5"/>
<text text-anchor="middle" x="1015.3478" y="-87.3" font-family="Times,serif" font-size="14.00" fill="#000000">VegaCGTextMetrics</text>
</g>
<!-- JSExport -->
<g id="node7" class="node">
<title>JSExport</title>
<polygon fill="none" stroke="#000000" stroke-dasharray="5,2" points="841.6823,-325.1 841.6823,-361.1 909.0133,-361.1 909.0133,-325.1 841.6823,-325.1"/>
<text text-anchor="middle" x="875.3478" y="-338.9" font-family="Times,serif" font-size="14.00" fill="#000000">JSExport</text>
</g>
<!-- VegaCGGradientInterface -->
<g id="node8" class="node">
<title>VegaCGGradientInterface</title>
<polygon fill="none" stroke="#000000" stroke-dasharray="5,2" points="618.5041,-199.3 618.5041,-235.3 782.1915,-235.3 782.1915,-199.3 618.5041,-199.3"/>
<text text-anchor="middle" x="700.3478" y="-213.1" font-family="Times,serif" font-size="14.00" fill="#000000">VegaCGGradientInterface</text>
</g>
<!-- JSExport&#45;&gt;VegaCGGradientInterface -->
<g id="edge3" class="edge">
<title>JSExport&#45;&gt;VegaCGGradientInterface</title>
<path fill="none" stroke="#000000" d="M837.3792,-319.4791C822.7933,-310.1427 806.11,-299.1405 791.3478,-288.6 767.1734,-271.339 740.5359,-250.2055 722.363,-235.4463"/>
<polygon fill="none" stroke="#000000" points="835.8374,-322.6463 846.1541,-325.0581 839.5931,-316.7392 835.8374,-322.6463"/>
</g>
<!-- VegaCGImageInterface -->
<g id="node9" class="node">
<title>VegaCGImageInterface</title>
<polygon fill="none" stroke="#000000" stroke-dasharray="5,2" points="800.5027,-199.3 800.5027,-235.3 950.1929,-235.3 950.1929,-199.3 800.5027,-199.3"/>
<text text-anchor="middle" x="875.3478" y="-213.1" font-family="Times,serif" font-size="14.00" fill="#000000">VegaCGImageInterface</text>
</g>
<!-- JSExport&#45;&gt;VegaCGImageInterface -->
<g id="edge5" class="edge">
<title>JSExport&#45;&gt;VegaCGImageInterface</title>
<path fill="none" stroke="#000000" d="M875.3478,-315.0663C875.3478,-290.8574 875.3478,-256.5755 875.3478,-235.6997"/>
<polygon fill="none" stroke="#000000" points="871.8479,-315.0759 875.3478,-325.0759 878.8479,-315.076 871.8479,-315.0759"/>
</g>
<!-- VegaCGTextMetricsInterface -->
<g id="node10" class="node">
<title>VegaCGTextMetricsInterface</title>
<polygon fill="none" stroke="#000000" stroke-dasharray="5,2" points="967.7839,-199.3 967.7839,-235.3 1150.9117,-235.3 1150.9117,-199.3 967.7839,-199.3"/>
<text text-anchor="middle" x="1059.3478" y="-213.1" font-family="Times,serif" font-size="14.00" fill="#000000">VegaCGTextMetricsInterface</text>
</g>
<!-- JSExport&#45;&gt;VegaCGTextMetricsInterface -->
<g id="edge7" class="edge">
<title>JSExport&#45;&gt;VegaCGTextMetricsInterface</title>
<path fill="none" stroke="#000000" d="M912.7234,-319.3481C927.3589,-309.9179 944.2321,-298.8851 959.3478,-288.6 985.2615,-270.9676 1014.3877,-250.0754 1034.4925,-235.4809"/>
<polygon fill="none" stroke="#000000" points="910.4586,-316.6429 903.9356,-324.9916 914.2412,-322.5329 910.4586,-316.6429"/>
</g>
<!-- VegaCGContextInterface -->
<g id="node11" class="node">
<title>VegaCGContextInterface</title>
<polygon fill="none" stroke="#000000" stroke-dasharray="5,2" points="1099.8267,-73.5 1099.8267,-109.5 1258.8689,-109.5 1258.8689,-73.5 1099.8267,-73.5"/>
<text text-anchor="middle" x="1179.3478" y="-87.3" font-family="Times,serif" font-size="14.00" fill="#000000">VegaCGContextInterface</text>
</g>
<!-- JSExport&#45;&gt;VegaCGContextInterface -->
<g id="edge9" class="edge">
<title>JSExport&#45;&gt;VegaCGContextInterface</title>
<path fill="none" stroke="#000000" d="M919.3276,-340.9479C991.1002,-336.4551 1128.615,-323.4248 1160.3478,-288.6 1206.1931,-238.2875 1192.4874,-147.8958 1183.9237,-109.5197"/>
<polygon fill="none" stroke="#000000" points="919.0093,-337.4605 909.2356,-341.5504 919.4265,-344.4481 919.0093,-337.4605"/>
</g>
<!-- VegaCGCanvasInterface -->
<g id="node12" class="node">
<title>VegaCGCanvasInterface</title>
<polygon fill="none" stroke="#000000" stroke-dasharray="5,2" points="444.3877,-199.3 444.3877,-235.3 600.3079,-235.3 600.3079,-199.3 444.3877,-199.3"/>
<text text-anchor="middle" x="522.3478" y="-213.1" font-family="Times,serif" font-size="14.00" fill="#000000">VegaCGCanvasInterface</text>
</g>
<!-- JSExport&#45;&gt;VegaCGCanvasInterface -->
<g id="edge11" class="edge">
<title>JSExport&#45;&gt;VegaCGCanvasInterface</title>
<path fill="none" stroke="#000000" d="M831.3479,-340.5607C776.8607,-335.9927 682.3219,-323.3404 609.3478,-288.6 581.8413,-275.5051 555.5519,-251.8932 539.2106,-235.4446"/>
<polygon fill="none" stroke="#000000" points="831.1241,-344.0538 841.3672,-341.3469 831.6717,-337.0753 831.1241,-344.0538"/>
</g>
<!-- VegaCGGradientInterface&#45;&gt;VegaCGLinearGradient -->
<g id="edge4" class="edge">
<title>VegaCGGradientInterface&#45;&gt;VegaCGLinearGradient</title>
<path fill="none" stroke="#000000" stroke-dasharray="5,2" d="M700.3478,-189.2663C700.3478,-165.0574 700.3478,-130.7755 700.3478,-109.8997"/>
<polygon fill="none" stroke="#000000" points="696.8479,-189.2759 700.3478,-199.2759 703.8479,-189.276 696.8479,-189.2759"/>
</g>
<!-- VegaCGImageInterface&#45;&gt;VegaCGImage -->
<g id="edge6" class="edge">
<title>VegaCGImageInterface&#45;&gt;VegaCGImage</title>
<path fill="none" stroke="#000000" stroke-dasharray="5,2" d="M875.3478,-189.2663C875.3478,-165.0574 875.3478,-130.7755 875.3478,-109.8997"/>
<polygon fill="none" stroke="#000000" points="871.8479,-189.2759 875.3478,-199.2759 878.8479,-189.276 871.8479,-189.2759"/>
</g>
<!-- VegaCGTextMetricsInterface&#45;&gt;VegaCGTextMetrics -->
<g id="edge8" class="edge">
<title>VegaCGTextMetricsInterface&#45;&gt;VegaCGTextMetrics</title>
<path fill="none" stroke="#000000" stroke-dasharray="5,2" d="M1049.6564,-189.5914C1041.183,-165.3652 1029.1176,-130.8691 1021.7833,-109.8997"/>
<polygon fill="none" stroke="#000000" points="1046.4384,-190.9922 1053.0437,-199.2759 1053.0459,-188.6811 1046.4384,-190.9922"/>
</g>
<!-- VegaCGContextInterface&#45;&gt;VegaCGContext -->
<g id="edge10" class="edge">
<title>VegaCGContextInterface&#45;&gt;VegaCGContext</title>
<path fill="none" stroke="#000000" stroke-dasharray="5,2" d="M1089.6358,-71.5943C1030.6216,-58.5 955.293,-41.7857 905.0737,-30.6428"/>
<polygon fill="none" stroke="#000000" points="1089.1853,-75.0794 1099.7061,-73.8287 1090.7017,-68.2456 1089.1853,-75.0794"/>
</g>
<!-- VegaCGCanvasInterface&#45;&gt;VegaCGCanvas -->
<g id="edge12" class="edge">
<title>VegaCGCanvasInterface&#45;&gt;VegaCGCanvas</title>
<path fill="none" stroke="#000000" stroke-dasharray="5,2" d="M522.3478,-189.2663C522.3478,-165.0574 522.3478,-130.7755 522.3478,-109.8997"/>
<polygon fill="none" stroke="#000000" points="518.8479,-189.2759 522.3478,-199.2759 525.8479,-189.276 518.8479,-189.2759"/>
</g>
</g>
</svg>
