<?xml version="1.0" encoding="UTF-8"?>
<svg width="8px" height="8px" viewBox="0 0 8 8" version="1.1" xmlns="http://www.w3.org/2000/svg" xmlns:xlink="http://www.w3.org/1999/xlink">
    <!-- Generator: Sketch 52.5 (67469) - http://www.bohemiancoding.com/sketch -->
    <title>icons/message/info</title>
    <desc>Created with Sketch.</desc>
    <defs>
        <path d="M5,8.5 C4.52416351,8.5 4.07016119,8.40836931 3.63797942,8.22510519 C3.21889407,8.04838621 2.84783448,7.79858351 2.52478952,7.47568957 C2.20174457,7.15279564 1.95182502,6.78190953 1.77502339,6.3630201 C1.59167355,5.92885867 1.5,5.47452318 1.5,5 C1.5,4.52547682 1.59167355,4.07114133 1.77502339,3.6369799 C1.95182502,3.22027219 2.20174457,2.85047691 2.52478952,2.52758298 C2.84783448,2.20468905 3.21889407,1.9537955 3.63797942,1.77489481 C4.07016119,1.59163069 4.52416351,1.5 5,1.5 C5.47583649,1.5 5.92983881,1.59163069 6.36202058,1.77489481 C6.78110593,1.9537955 7.15216552,2.20468905 7.47521048,2.52758298 C7.79825543,2.85047691 8.04817498,3.22027219 8.22497661,3.6369799 C8.40832645,4.07114133 8.5,4.52547682 8.5,5 C8.5,5.47452318 8.40832645,5.92885867 8.22497661,6.3630201 C8.04817498,6.78190953 7.79825543,7.15279564 7.47521048,7.47568957 C7.15216552,7.79858351 6.78110593,8.04838621 6.36202058,8.22510519 C5.92983881,8.40836931 5.47583649,8.5 5,8.5 Z M5,8 C6.65685425,8 8,6.65685425 8,5 C8,3.34314575 6.65685425,2 5,2 C3.34314575,2 2,3.34314575 2,5 C2,6.65685425 3.34314575,8 5,8 Z M5.375,7.125 L4.625,7.125 L4.625,4.25 L5.375,4.25 L5.375,7.125 Z M5,2.875 C5.27614237,2.875 5.5,3.09885763 5.5,3.375 C5.5,3.65114237 5.27614237,3.875 5,3.875 C4.72385763,3.875 4.5,3.65114237 4.5,3.375 C4.5,3.09885763 4.72385763,2.875 5,2.875 Z" id="path-1"></path>
    </defs>
    <g id="Page-1" stroke="none" stroke-width="1" fill="none" fill-rule="evenodd">
        <g id="Desktop" transform="translate(-840.000000, -107.000000)">
            <g id="Group-11" transform="translate(64.000000, 37.000000)">
                <g id="icons/message/info" transform="translate(775.000000, 69.000000)">
                    <mask id="mask-2" fill="white">
                        <use xlink:href="#path-1"></use>
                    </mask>
                    <use id="information-circle" fill="#484856" fill-rule="evenodd" xlink:href="#path-1"></use>
                    <g id="color" stroke-width="1" fill-rule="evenodd" mask="url(#mask-2)" fill="#007AFF" stroke="#066EE0">
                        <rect id="Rectangle-Copy-18" x="0" y="0" width="11" height="11" rx="4"></rect>
                    </g>
                </g>
            </g>
        </g>
    </g>
</svg>